<svg width="96" height="96" viewBox="0 0 96 96" fill="none" xmlns="http://www.w3.org/2000/svg">
<path opacity="0.3" d="M48 88C70.0914 88 88 70.0914 88 48C88 25.9086 70.0914 8 48 8C25.9086 8 8 25.9086 8 48C8 70.0914 25.9086 88 48 88Z" fill="#C2FFE1"/>
<path d="M67.0758 31.2707C68.5832 29.6557 71.1143 29.5685 72.7293 31.0758C74.3443 32.5831 74.4316 35.1143 72.9243 36.7293L44.9243 66.7293C43.4619 68.2962 41.0243 68.4319 39.3969 67.037L25.3969 55.037C23.7196 53.5994 23.5254 51.0742 24.963 49.3969C26.4007 47.7195 28.9259 47.5253 30.6032 48.963L41.692 58.4677L67.0758 31.2707Z" fill="#29CC7A"/>
</svg>
