<svg width="55" height="18" viewBox="0 0 55 18" fill="none" xmlns="http://www.w3.org/2000/svg">
<path d="M5.504 14.192C4.84267 14.192 4.224 14.0747 3.648 13.84C3.072 13.6053 2.57067 13.2587 2.144 12.8C1.728 12.3413 1.39733 11.776 1.152 11.104C0.906667 10.432 0.784 9.664 0.784 8.8C0.784 7.94667 0.906667 7.184 1.152 6.512C1.408 5.82933 1.74933 5.25333 2.176 4.784C2.61333 4.31467 3.12 3.95733 3.696 3.712C4.28267 3.46667 4.90667 3.344 5.568 3.344C6.22933 3.344 6.816 3.47733 7.328 3.744C7.84 4.01067 8.26133 4.32 8.592 4.672L7.6 5.872C7.32267 5.59467 7.024 5.376 6.704 5.216C6.384 5.04533 6.02133 4.96 5.616 4.96C5.18933 4.96 4.79467 5.05067 4.432 5.232C4.08 5.40267 3.77067 5.65333 3.504 5.984C3.248 6.304 3.04533 6.69867 2.896 7.168C2.75733 7.63733 2.688 8.16533 2.688 8.752C2.688 9.94667 2.944 10.8853 3.456 11.568C3.97867 12.24 4.68267 12.576 5.568 12.576C6.03733 12.576 6.45333 12.48 6.816 12.288C7.17867 12.0853 7.50933 11.824 7.808 11.504L8.8 12.672C8.37333 13.1627 7.88267 13.5413 7.328 13.808C6.784 14.064 6.176 14.192 5.504 14.192ZM13.6028 14.192C13.1121 14.192 12.6428 14.1013 12.1948 13.92C11.7468 13.7387 11.3468 13.472 10.9948 13.12C10.6534 12.768 10.3814 12.336 10.1788 11.824C9.97608 11.312 9.87475 10.7307 9.87475 10.08C9.87475 9.42933 9.97608 8.848 10.1788 8.336C10.3814 7.824 10.6534 7.392 10.9948 7.04C11.3468 6.688 11.7468 6.42133 12.1948 6.24C12.6428 6.048 13.1121 5.952 13.6028 5.952C14.0934 5.952 14.5628 6.048 15.0108 6.24C15.4694 6.42133 15.8694 6.688 16.2108 7.04C16.5521 7.392 16.8241 7.824 17.0268 8.336C17.2401 8.848 17.3468 9.42933 17.3468 10.08C17.3468 10.7307 17.2401 11.312 17.0268 11.824C16.8241 12.336 16.5521 12.768 16.2108 13.12C15.8694 13.472 15.4694 13.7387 15.0108 13.92C14.5628 14.1013 14.0934 14.192 13.6028 14.192ZM13.6028 12.688C14.1788 12.688 14.6321 12.4533 14.9628 11.984C15.2934 11.504 15.4588 10.8693 15.4588 10.08C15.4588 9.28 15.2934 8.64533 14.9628 8.176C14.6321 7.696 14.1788 7.456 13.6028 7.456C13.0268 7.456 12.5734 7.696 12.2428 8.176C11.9228 8.64533 11.7628 9.28 11.7628 10.08C11.7628 10.8693 11.9228 11.504 12.2428 11.984C12.5734 12.4533 13.0268 12.688 13.6028 12.688ZM19.168 17.104V6.144H20.688L20.816 6.976H20.88C21.2107 6.69867 21.5787 6.45867 21.984 6.256C22.3893 6.05333 22.8107 5.952 23.248 5.952C23.7387 5.952 24.1707 6.048 24.544 6.24C24.928 6.42133 25.2533 6.688 25.52 7.04C25.7867 7.392 25.9893 7.81333 26.128 8.304C26.2667 8.79467 26.336 9.344 26.336 9.952C26.336 10.624 26.24 11.2267 26.048 11.76C25.8667 12.2827 25.6213 12.7253 25.312 13.088C25.0027 13.44 24.6453 13.712 24.24 13.904C23.8347 14.096 23.4133 14.192 22.976 14.192C22.6347 14.192 22.2933 14.1173 21.952 13.968C21.6107 13.8187 21.28 13.6053 20.96 13.328L21.008 14.64V17.104H19.168ZM22.592 12.672C23.1147 12.672 23.552 12.448 23.904 12C24.256 11.5413 24.432 10.864 24.432 9.968C24.432 9.17867 24.2987 8.56533 24.032 8.128C23.7653 7.69067 23.3333 7.472 22.736 7.472C22.1813 7.472 21.6053 7.76533 21.008 8.352V12.016C21.296 12.2613 21.5733 12.432 21.84 12.528C22.1067 12.624 22.3573 12.672 22.592 12.672ZM28.6335 17.232C28.4202 17.232 28.2335 17.216 28.0735 17.184C27.9135 17.1627 27.7588 17.1253 27.6095 17.072L27.9455 15.632C28.0202 15.6533 28.1055 15.6747 28.2015 15.696C28.3082 15.728 28.4095 15.744 28.5055 15.744C28.9215 15.744 29.2522 15.616 29.4975 15.36C29.7535 15.1147 29.9455 14.7947 30.0735 14.4L30.2175 13.904L27.1295 6.144H29.0015L30.3615 10C30.4788 10.3413 30.5908 10.704 30.6975 11.088C30.8148 11.4613 30.9322 11.8347 31.0495 12.208H31.1135C31.2095 11.8453 31.3055 11.4773 31.4015 11.104C31.5082 10.72 31.6095 10.352 31.7055 10L32.8895 6.144H34.6655L31.8175 14.352C31.6575 14.8 31.4815 15.2 31.2895 15.552C31.0975 15.904 30.8735 16.2027 30.6175 16.448C30.3722 16.704 30.0842 16.896 29.7535 17.024C29.4335 17.1627 29.0602 17.232 28.6335 17.232Z" fill="#29CC7A"/>
<path d="M53 5.96C52.9931 5.89876 52.9796 5.83842 52.96 5.78V5.72C52.9279 5.65146 52.8852 5.58845 52.8333 5.53334L48.8333 1.53334C48.7782 1.48148 48.7152 1.43872 48.6467 1.40667C48.6268 1.40384 48.6066 1.40384 48.5867 1.40667C48.5189 1.36783 48.4441 1.3429 48.3667 1.33334H45.6667C45.1362 1.33334 44.6275 1.54405 44.2525 1.91912C43.8774 2.2942 43.6667 2.8029 43.6667 3.33334V4H43C42.4696 4 41.9609 4.21072 41.5858 4.58579C41.2107 4.96086 41 5.46957 41 6V12.6667C41 13.1971 41.2107 13.7058 41.5858 14.0809C41.9609 14.456 42.4696 14.6667 43 14.6667H48.3333C48.8638 14.6667 49.3725 14.456 49.7475 14.0809C50.1226 13.7058 50.3333 13.1971 50.3333 12.6667V12H51C51.5304 12 52.0391 11.7893 52.4142 11.4142C52.7893 11.0391 53 10.5304 53 10V6V5.96ZM49 3.60667L50.7267 5.33334H49.6667C49.4899 5.33334 49.3203 5.2631 49.1953 5.13807C49.0702 5.01305 49 4.84348 49 4.66667V3.60667ZM49 12.6667C49 12.8435 48.9298 13.0131 48.8047 13.1381C48.6797 13.2631 48.5101 13.3333 48.3333 13.3333H43C42.8232 13.3333 42.6536 13.2631 42.5286 13.1381C42.4036 13.0131 42.3333 12.8435 42.3333 12.6667V6C42.3333 5.82319 42.4036 5.65362 42.5286 5.5286C42.6536 5.40357 42.8232 5.33334 43 5.33334H43.6667V10C43.6667 10.5304 43.8774 11.0391 44.2525 11.4142C44.6275 11.7893 45.1362 12 45.6667 12H49V12.6667ZM51.6667 10C51.6667 10.1768 51.5964 10.3464 51.4714 10.4714C51.3464 10.5964 51.1768 10.6667 51 10.6667H45.6667C45.4899 10.6667 45.3203 10.5964 45.1953 10.4714C45.0702 10.3464 45 10.1768 45 10V3.33334C45 3.15652 45.0702 2.98696 45.1953 2.86193C45.3203 2.73691 45.4899 2.66667 45.6667 2.66667H47.6667V4.66667C47.6667 5.1971 47.8774 5.70581 48.2525 6.08088C48.6275 6.45596 49.1362 6.66667 49.6667 6.66667H51.6667V10Z" fill="#29CC7A"/>
</svg>
