<svg width="25" height="25" viewBox="0 0 25 25" fill="none" xmlns="http://www.w3.org/2000/svg">
<path d="M6.02269 18.8293C6.41205 19.2186 7.04333 19.2186 7.43269 18.8293L12.3177 13.9443L17.2027 18.8293C17.592 19.2186 18.2233 19.2186 18.6127 18.8293C19.002 18.4399 19.002 17.8086 18.6127 17.4193L13.7277 12.5343L18.5697 7.6923C18.9828 7.27917 18.9828 6.60937 18.5697 6.19624C18.2041 5.83064 17.6113 5.83064 17.2457 6.19624L12.3177 11.1243L7.43269 6.23927C7.04333 5.84991 6.41205 5.84991 6.02269 6.23927C5.63333 6.62863 5.63333 7.25991 6.02269 7.64927L10.9077 12.5343L6.02269 17.4193C5.63333 17.8086 5.63333 18.4399 6.02269 18.8293Z" fill="#29CC7A"/>
</svg>
