<svg width="96" height="96" viewBox="0 0 96 96" fill="none" xmlns="http://www.w3.org/2000/svg">
<path opacity="0.3" d="M48 88C70.0914 88 88 70.0914 88 48C88 25.9086 70.0914 8 48 8C25.9086 8 8 25.9086 8 48C8 70.0914 25.9086 88 48 88Z" fill="#FFD1D1"/>
<path fill-rule="evenodd" clip-rule="evenodd" d="M48.0024 54.3863L59.839 66.5052C61.0264 67.7303 61.799 67.7429 63.0082 66.5052L65.383 64.0732C66.5464 62.8823 66.6253 62.1006 65.383 60.8286L52.8516 48L65.3842 35.1714C66.5579 33.9657 66.5807 33.152 65.3842 31.9257L63.0093 29.4949C61.7773 28.2332 61.0162 28.2914 59.8402 29.4949L48.0024 41.6137L36.1659 29.496C34.9899 28.2926 34.2287 28.2343 32.9967 29.496L30.6219 31.9269C29.4242 33.1532 29.4459 33.9669 30.6219 35.1726L43.1533 48L30.6219 60.8286C29.3796 62.1006 29.4459 62.8823 30.6219 64.0732L32.9956 66.5052C34.1944 67.7429 34.967 67.7303 36.1647 66.5052L48.0024 54.3863Z" fill="#DE0000"/>
</svg>
