<svg width="25" height="25" viewBox="0 0 25 25" fill="none" xmlns="http://www.w3.org/2000/svg">
<path fill-rule="evenodd" clip-rule="evenodd" d="M2.7176 5.33423C2.50543 5.33423 2.30195 5.41851 2.15192 5.56854C2.00189 5.71857 1.9176 5.92206 1.9176 6.13423C1.9176 6.3464 2.00189 6.54988 2.15192 6.69991C2.30195 6.84994 2.50543 6.93423 2.7176 6.93423H21.9176C22.1298 6.93423 22.3333 6.84994 22.4833 6.69991C22.6333 6.54988 22.7176 6.3464 22.7176 6.13423C22.7176 5.92206 22.6333 5.71857 22.4833 5.56854C22.3333 5.41851 22.1298 5.33423 21.9176 5.33423H2.7176ZM1.9176 12.5342C1.9176 12.3221 2.00189 12.1186 2.15192 11.9685C2.30195 11.8185 2.50543 11.7342 2.7176 11.7342H21.9176C22.1298 11.7342 22.3333 11.8185 22.4833 11.9685C22.6333 12.1186 22.7176 12.3221 22.7176 12.5342C22.7176 12.7464 22.6333 12.9499 22.4833 13.0999C22.3333 13.2499 22.1298 13.3342 21.9176 13.3342H2.7176C2.50543 13.3342 2.30195 13.2499 2.15192 13.0999C2.00189 12.9499 1.9176 12.7464 1.9176 12.5342ZM1.9176 18.9342C1.9176 18.7221 2.00189 18.5186 2.15192 18.3685C2.30195 18.2185 2.50543 18.1342 2.7176 18.1342H21.9176C22.1298 18.1342 22.3333 18.2185 22.4833 18.3685C22.6333 18.5186 22.7176 18.7221 22.7176 18.9342C22.7176 19.1464 22.6333 19.3499 22.4833 19.4999C22.3333 19.6499 22.1298 19.7342 21.9176 19.7342H2.7176C2.50543 19.7342 2.30195 19.6499 2.15192 19.4999C2.00189 19.3499 1.9176 19.1464 1.9176 18.9342Z" fill="#29CC7A"/>
</svg>
