<svg width="48" height="48" viewBox="0 0 48 48" fill="none" xmlns="http://www.w3.org/2000/svg">
<g opacity="0.55">
<path fill-rule="evenodd" clip-rule="evenodd" d="M24 15.7429C23.1986 15.7429 22.5429 15.0871 22.5429 14.2857V8.45714C22.5429 7.65571 23.1986 7 24 7C24.8014 7 25.4571 7.65571 25.4571 8.45714V14.2857C25.4571 15.0871 24.8014 15.7429 24 15.7429Z" fill="#29CC7A"/>
<path fill-rule="evenodd" clip-rule="evenodd" d="M28.1286 16.8491C27.4345 16.4484 27.1945 15.5527 27.5953 14.8587L30.5095 9.81112C30.9103 9.11703 31.8059 8.87709 32.5 9.27781C33.1941 9.67852 33.434 10.5742 33.0333 11.2683L30.119 16.3158C29.7183 17.0099 28.8227 17.2498 28.1286 16.8491Z" fill="#29CC7A"/>
<path fill-rule="evenodd" clip-rule="evenodd" d="M31.1509 19.8714C30.7502 19.1773 30.9901 18.2817 31.6842 17.881L36.7317 14.9667C37.4258 14.566 38.3215 14.8059 38.7222 15.5C39.1229 16.1941 38.883 17.0897 38.1889 17.4905L33.1413 20.4047C32.4473 20.8055 31.5516 20.5655 31.1509 19.8714Z" fill="#29CC7A"/>
<path fill-rule="evenodd" clip-rule="evenodd" d="M32.2571 24C32.2571 23.1986 32.9129 22.5429 33.7143 22.5429H39.5429C40.3443 22.5429 41 23.1986 41 24C41 24.8014 40.3443 25.4571 39.5429 25.4571H33.7143C32.9129 25.4571 32.2571 24.8014 32.2571 24Z" fill="#29CC7A"/>
<path fill-rule="evenodd" clip-rule="evenodd" d="M31.1509 28.1286C31.5516 27.4345 32.4473 27.1945 33.1413 27.5953L38.1889 30.5095C38.883 30.9103 39.1229 31.8059 38.7222 32.5C38.3215 33.1941 37.4258 33.434 36.7317 33.0333L31.6842 30.119C30.9901 29.7183 30.7502 28.8227 31.1509 28.1286Z" fill="#29CC7A"/>
<path fill-rule="evenodd" clip-rule="evenodd" d="M28.1286 31.1509C28.8227 30.7502 29.7183 30.9901 30.119 31.6842L33.0333 36.7317C33.434 37.4258 33.1941 38.3215 32.5 38.7222C31.8059 39.1229 30.9103 38.883 30.5095 38.1889L27.5953 33.1413C27.1945 32.4473 27.4345 31.5516 28.1286 31.1509Z" fill="#29CC7A"/>
<path fill-rule="evenodd" clip-rule="evenodd" d="M24 32.2571C24.8014 32.2571 25.4571 32.9129 25.4571 33.7143V39.5429C25.4571 40.3443 24.8014 41 24 41C23.1986 41 22.5429 40.3443 22.5429 39.5429V33.7143C22.5429 32.9129 23.1986 32.2571 24 32.2571Z" fill="#29CC7A"/>
<path fill-rule="evenodd" clip-rule="evenodd" d="M19.8714 31.1509C20.5655 31.5516 20.8055 32.4473 20.4047 33.1413L17.4905 38.1889C17.0897 38.883 16.1941 39.1229 15.5 38.7222C14.8059 38.3215 14.566 37.4258 14.9667 36.7317L17.881 31.6842C18.2817 30.9901 19.1773 30.7502 19.8714 31.1509Z" fill="#29CC7A"/>
<path fill-rule="evenodd" clip-rule="evenodd" d="M16.8491 28.1286C17.2498 28.8227 17.0099 29.7183 16.3158 30.119L11.2683 33.0333C10.5742 33.434 9.67852 33.1941 9.27781 32.5C8.87709 31.8059 9.11703 30.9103 9.81112 30.5095L14.8587 27.5953C15.5527 27.1945 16.4484 27.4345 16.8491 28.1286Z" fill="#29CC7A"/>
<path fill-rule="evenodd" clip-rule="evenodd" d="M15.7429 24C15.7429 24.8014 15.0871 25.4571 14.2857 25.4571H8.45714C7.65571 25.4571 7 24.8014 7 24C7 23.1986 7.65571 22.5429 8.45714 22.5429H14.2857C15.0871 22.5429 15.7429 23.1986 15.7429 24Z" fill="#29CC7A"/>
<path fill-rule="evenodd" clip-rule="evenodd" d="M16.8491 19.8714C16.4484 20.5655 15.5527 20.8055 14.8587 20.4047L9.81112 17.4905C9.11703 17.0897 8.87709 16.1941 9.27781 15.5C9.67852 14.8059 10.5742 14.566 11.2683 14.9667L16.3158 17.881C17.0099 18.2817 17.2498 19.1773 16.8491 19.8714Z" fill="#29CC7A"/>
<path fill-rule="evenodd" clip-rule="evenodd" d="M19.8714 16.8491C19.1773 17.2498 18.2817 17.0099 17.881 16.3158L14.9667 11.2683C14.566 10.5742 14.8059 9.67852 15.5 9.27781C16.1941 8.87709 17.0897 9.11703 17.4905 9.81112L20.4047 14.8587C20.8055 15.5527 20.5655 16.4484 19.8714 16.8491Z" fill="#29CC7A"/>
</g>
</svg>
