<svg width="146" height="42" viewBox="0 0 146 42" fill="none" xmlns="http://www.w3.org/2000/svg">
<path d="M3.30924 34.3137C2.49081 33.5848 1.58005 32.9337 0.875097 32.1075C-0.403045 30.6072 -0.282829 28.8761 1.24729 27.6316C2.13881 26.9065 3.20922 26.3246 4.29021 25.9265C7.29562 24.8205 10.3482 23.827 13.3901 22.8152C14.7231 22.3748 16.0762 21.9872 17.5044 22.3546C18.4556 22.6037 18.9835 23.2653 19.0153 24.2511C19.0576 25.4985 18.5354 26.5901 17.9833 27.6412C17.4765 28.6126 16.8023 29.5003 16.2291 30.4437C13.7758 34.4763 8.88632 36.2286 4.46813 34.6427C4.11036 34.5119 3.75548 34.3724 3.39772 34.2378C3.36887 34.2628 3.33809 34.2887 3.30924 34.3137ZM15.7646 28.778C15.8772 28.3606 16.1618 27.6412 16.2445 26.8988C16.3647 25.8707 15.8214 25.1263 14.8096 24.932C14.0701 24.7887 13.2776 24.7147 12.5399 24.8282C10.251 25.1725 8.06597 25.9197 6.0396 27.0286C5.22597 27.471 4.48544 28.1125 3.84396 28.7838C2.79183 29.8811 2.91782 31.3612 4.06035 32.373C5.34234 33.5107 6.8715 33.9945 8.55549 33.8463C11.7715 33.5684 13.9729 31.7488 15.7646 28.778Z" fill="#29CC7A"/>
<path d="M14.8367 0.183692C17.3363 1.02329 19.6694 1.55032 21.5621 3.08526C24.2896 5.3011 25.6562 8.16131 25.3542 11.6822C25.209 13.3787 24.6416 14.9906 23.4769 16.3111C22.2911 17.6614 20.7668 17.9345 19.3117 16.9025C18.499 16.3274 17.7085 15.5965 17.192 14.7588C15.1406 11.4389 13.1797 8.06417 11.2408 4.67789C10.8888 4.07007 10.7061 3.33146 10.5859 2.62939C10.3147 1.07041 11.1129 0.0663598 12.6921 0.00384689C13.4893 -0.0269287 14.2972 0.135605 14.8367 0.183692ZM17.2064 2.388C16.9631 2.33029 16.7246 2.25816 16.4813 2.21296C14.5367 1.85231 13.3941 2.91407 13.6375 4.87024C13.6836 5.24917 13.7548 5.63482 13.8875 5.98874C14.8271 8.48541 16.1476 10.7657 17.9797 12.7132C18.4634 13.2277 19.076 13.6596 19.7041 13.9933C21.2015 14.7925 22.5979 14.253 23.3327 12.7036C24.0694 11.1485 24.1146 9.55775 23.5404 7.96704C22.4604 4.95584 20.1801 3.26606 17.2064 2.388Z" fill="#29CC7A"/>
<path d="M36.9342 37.4922C36.7274 36.6065 36.3649 35.7178 35.8859 34.9475C34.6915 33.0413 33.395 31.1957 32.1313 29.3338C31.1119 27.8287 30.0819 26.3265 29.0547 24.8233C29.0144 24.8531 28.974 24.8838 28.9316 24.9127C28.7576 24.7348 28.5883 24.553 28.4104 24.3809C26.8053 22.8402 24.9616 22.8142 23.6123 24.1337C24.3355 24.7704 24.8097 25.5926 25.2097 26.4447C26.1176 26.1053 27.2255 26.3447 28.3315 27.2391C30.6589 29.128 32.215 31.591 33.4345 34.2742C33.9067 35.3158 34.1923 36.5055 33.3537 37.4845C32.5304 38.4434 31.3494 38.2462 30.2492 38.0375C29.0365 37.8077 27.8333 37.2643 26.6831 36.4555C26.5437 36.8921 26.3648 37.3153 26.1657 37.7298C26.2138 37.7615 26.26 37.7971 26.308 37.8279C28.6162 39.2503 31.2273 39.8062 33.8682 40.2043C34.2202 40.2562 34.5924 40.2187 34.9502 40.1764C36.4755 39.9947 37.2824 38.9829 36.9342 37.4922Z" fill="#29CC7A"/>
<path d="M25.8676 25.8525C25.1847 24.985 24.5875 24.0473 23.8566 23.2298C23.7768 23.1413 23.6941 23.0567 23.6152 22.9711C22.9756 22.2758 22.2794 21.6343 21.3994 21.2438C21.2782 21.1909 21.1676 21.1227 21.0406 21.0813C20.1058 20.763 19.2989 21.0274 18.7334 21.8353C17.89 23.0432 17.7813 24.4455 17.7294 25.8477C17.6178 29.0532 17.4793 32.2586 17.4678 35.4641C17.4649 36.6153 17.638 37.8194 18.0035 38.9071C18.6344 40.7768 20.2174 41.4942 22.0687 40.82C23.0911 40.4469 24.0182 39.8208 24.9857 39.3101C24.9722 39.2736 24.9607 39.236 24.9453 39.2033C25.1953 38.9119 25.4521 38.6292 25.6993 38.3416C26.9111 36.9029 27.642 35.2083 27.9016 33.456C27.969 33.0011 28.0113 32.5443 28.0142 32.0846C28.0315 29.8947 27.3169 27.6913 25.8676 25.8525ZM26.3792 34.2331C25.9311 35.8613 24.9443 37.1289 23.4296 37.931C22.0822 38.6484 20.6502 38.2503 19.9895 36.8807C19.5865 36.044 19.2432 35.1265 19.1133 34.211C18.7786 31.923 18.844 29.6148 19.3182 27.349C19.4701 26.619 19.8154 25.9025 20.2068 25.2591C20.3617 25.009 20.5454 24.8167 20.7483 24.6686C21.2551 24.3022 21.8927 24.2637 22.5515 24.6003C22.589 24.6195 22.6246 24.6445 22.6612 24.6638C23.2805 25.0033 23.8114 25.4697 24.1461 25.7063C25.6627 27.6125 26.5552 29.5148 26.6668 31.5546C26.6927 32.0326 26.687 32.5154 26.6216 33.0136C26.5725 33.4127 26.4937 33.8176 26.3792 34.2331Z" fill="#00506B"/>
<path d="M3.292 16.3198C5.49052 14.8598 7.338 13.3412 9.7106 12.7892C13.1334 11.9958 16.2321 12.6728 18.8259 15.0724C20.0761 16.2274 21.0004 17.6643 21.3283 19.3935C21.6668 21.1583 20.9465 22.5307 19.2385 23.0472C18.2873 23.3337 17.2236 23.5098 16.2475 23.402C12.3669 22.9846 8.49881 22.4624 4.63265 21.9171C3.93732 21.818 3.24487 21.5103 2.61398 21.1746C1.2185 20.4312 0.91652 19.1858 1.8369 17.8999C2.29949 17.2546 2.92269 16.715 3.292 16.3198ZM6.48591 15.8023C6.2926 15.9553 6.08871 16.1005 5.9031 16.2649C4.42396 17.5768 4.56148 19.1319 6.25509 20.1408C6.58401 20.337 6.93215 20.5187 7.29184 20.6313C9.84043 21.4208 12.4506 21.7777 15.1126 21.5257C15.8157 21.4593 16.5331 21.242 17.1833 20.9506C18.7336 20.261 19.1625 18.8251 18.3922 17.294C17.616 15.7571 16.3879 14.7444 14.778 14.2222C11.7379 13.2278 9.00468 13.9914 6.48591 15.8023Z" fill="#00506B"/>
<path d="M21.1292 16.3447C22.6843 15.3993 24.2375 14.4501 25.7965 13.5095C27.7248 12.3487 29.6328 11.1513 31.6015 10.0607C32.3949 9.62314 33.3038 9.30673 34.1963 9.14997C35.7043 8.88165 36.6737 9.73855 36.7727 11.2735C36.7977 11.6332 36.8151 12.0063 36.7448 12.3554C36.2072 14.9713 35.5119 17.5507 33.9703 19.7771C31.0399 24.0165 25.4099 25.2667 21.2263 22.6623C18.8903 21.212 18.6518 18.8414 20.6522 16.965C20.8349 16.7977 21.0224 16.6361 21.21 16.4717C21.1859 16.4284 21.1581 16.3861 21.1292 16.3447ZM31.1447 20.912C32.8691 19.3934 33.9501 17.643 34.3886 15.8523C34.656 14.7655 34.9166 13.597 34.002 12.7238C33.0701 11.8351 31.865 12.0554 30.8004 12.4728C28.0556 13.548 25.5118 14.9713 23.5047 17.1949C21.6553 19.2463 22.2342 21.439 24.8761 22.243C27.4045 23.0124 29.5665 22.1815 31.1447 20.912Z" fill="#00506B"/>
<path d="M38.5903 24.7136C38.5903 18.521 43.2317 13.8796 49.6079 13.8796C52.4537 13.8796 54.6147 14.4423 56.5776 15.8579C56.7151 15.9493 56.7757 16.132 56.7757 16.3753C56.7757 16.9841 56.441 17.9122 56.1669 18.5671C55.7111 19.6318 55.086 20.6358 54.5685 20.6358C54.4926 20.6358 54.431 20.606 54.356 20.5599C53.0163 19.6164 51.2813 19.1298 49.6685 19.1298C46.7929 19.1298 44.2367 21.3956 44.2367 24.7136C44.2367 28.0172 46.7929 30.284 49.6685 30.284C51.2813 30.284 53.0019 29.782 54.356 28.8683C54.432 28.8231 54.508 28.8077 54.5839 28.8077C55.0398 28.8077 55.6486 29.5838 56.1669 30.7562C56.4555 31.4236 56.7757 32.3825 56.7757 33.0057C56.7757 33.2663 56.7305 33.4789 56.5776 33.5702C54.6147 34.9542 52.4537 35.5639 49.6079 35.5639C43.2317 35.5649 38.5903 30.9072 38.5903 24.7136Z" fill="#00506B"/>
<path d="M59.2241 30.9535V12.9517C59.2241 12.3275 60.5023 12.3275 61.7804 12.3275C63.0585 12.3275 64.3367 12.3275 64.3367 12.9517V29.8273C64.3367 30.3447 64.58 30.7255 65.2042 30.7255C65.4629 30.7255 65.7514 30.6948 66.0707 30.6044C66.1169 30.588 66.1621 30.588 66.2082 30.588C66.7564 30.588 66.7564 31.6844 66.7564 32.7942C66.7564 33.981 66.7564 35.1822 66.2082 35.2919C65.3263 35.4727 64.4271 35.5487 63.576 35.5487C60.6244 35.5477 59.2241 33.4636 59.2241 30.9535Z" fill="#00506B"/>
<path d="M68.0654 31.3324C68.0654 28.4876 70.515 26.8142 73.9705 26.1448L76.1921 25.7188V24.9571C76.1921 24.2569 75.7516 23.7549 74.7918 23.7549C73.6194 23.7549 72.2663 24.0454 70.6525 24.8965C70.5919 24.9263 70.5313 24.9417 70.4698 24.9417C70.0283 24.9417 69.5869 24.1204 69.2224 23.2385C68.9791 22.646 68.7511 22.0815 68.7511 21.6555C68.7511 21.3823 68.8425 21.1679 69.0704 21.0476C71.1709 19.9205 72.9664 19.4185 75.0505 19.4185C78.9003 19.4185 81.2758 21.0621 81.2758 25.3533V34.7735C81.2758 35.3823 80.1025 35.3823 78.9311 35.3823C77.7443 35.3823 76.5575 35.3823 76.5575 34.7735V33.4338C75.6756 34.7129 74.4273 35.5477 72.3576 35.5477C69.9677 35.5477 68.0654 34.1946 68.0654 31.3324ZM76.1911 29.6888V28.7319L74.4109 29.0964C73.7262 29.2022 73.178 29.659 73.178 30.3274C73.178 30.9073 73.6348 31.318 74.3196 31.318C75.5679 31.319 76.1911 30.4197 76.1911 29.6888Z" fill="#00506B"/>
<path d="M84.2717 34.3762C84.0745 34.2704 83.9985 34.0742 83.9985 33.7972C83.9985 33.3413 84.2265 32.7018 84.515 32.0026C84.8958 31.0438 85.2921 30.2667 85.8095 30.2667C85.9008 30.2667 85.9912 30.283 86.0826 30.3273C87.0867 30.8764 88.6552 31.3179 89.6737 31.3179C91.1192 31.3179 91.6068 31.013 91.6068 30.4186C91.6068 29.7647 90.6778 29.5367 89.5679 29.2626C87.4819 28.7923 84.2111 28.1066 84.2111 24.4097C84.2111 20.8628 86.9809 19.4174 90.8461 19.4174C92.7618 19.4174 94.4083 19.7222 95.9134 20.5907C96.0952 20.6965 96.1721 20.8792 96.1721 21.1533C96.1721 21.5938 95.9433 22.2333 95.6701 22.9181C95.3047 23.8163 94.819 24.6675 94.316 24.6675C94.241 24.6675 94.164 24.6511 94.0881 24.6069C93.16 24.0895 92.005 23.6317 91.0153 23.6317C89.8738 23.6317 89.3256 23.9808 89.3256 24.5463C89.3256 25.1089 90.1931 25.3224 91.3048 25.5782C93.4351 26.0514 96.7223 26.7958 96.7223 30.6629C96.7376 34.5579 93.4956 35.5456 89.5699 35.5456C87.6339 35.5476 85.7941 35.2283 84.2717 34.3762Z" fill="#00506B"/>
<path d="M98.759 34.3762C98.5608 34.2704 98.4849 34.0742 98.4849 33.7972C98.4849 33.3413 98.7128 32.7018 99.0032 32.0026C99.3822 31.0438 99.7784 30.2667 100.296 30.2667C100.387 30.2667 100.478 30.283 100.57 30.3273C101.574 30.8764 103.142 31.3179 104.161 31.3179C105.606 31.3179 106.093 31.013 106.093 30.4186C106.093 29.7647 105.165 29.5367 104.054 29.2626C101.97 28.7923 98.6984 28.1066 98.6984 24.4097C98.6984 20.8628 101.467 19.4174 105.332 19.4174C107.251 19.4174 108.895 19.7222 110.401 20.5907C110.582 20.6965 110.659 20.8792 110.659 21.1533C110.659 21.5938 110.432 22.2333 110.158 22.9181C109.794 23.8163 109.306 24.6675 108.804 24.6675C108.727 24.6675 108.652 24.6511 108.577 24.6069C107.648 24.0895 106.491 23.6317 105.504 23.6317C104.361 23.6317 103.813 23.9808 103.813 24.5463C103.813 25.1089 104.68 25.3224 105.792 25.5782C107.922 26.0514 111.21 26.7958 111.21 30.6629C111.224 34.5579 107.984 35.5456 104.057 35.5456C102.122 35.5476 100.28 35.2283 98.759 34.3762Z" fill="#00506B"/>
<path d="M113.575 33.4438C113.514 33.3833 113.485 33.3063 113.485 33.215C113.485 32.7581 114.214 31.9532 115.067 31.1463C115.966 30.3095 116.848 29.6084 117.304 29.6084C117.395 29.6084 117.472 29.6248 117.518 29.6844C118.186 30.3701 118.963 30.826 119.876 30.826C121.338 30.826 122.372 29.9441 122.372 28.5284C122.372 27.0829 121.351 26.1702 119.891 26.1702H114.338C114.065 26.1702 113.836 25.9413 113.836 25.6682V15.2132C113.836 14.9698 114.018 14.8025 114.247 14.8025H125.826C126.436 14.8025 126.436 16.0499 126.436 17.328C126.436 18.5908 126.436 19.8689 125.826 19.8689H118.752V21.4971H120.867C124.733 21.4971 127.789 24.04 127.789 28.5284C127.789 33.5352 124.137 36.1992 120.03 36.1992C117.242 36.1983 115.418 35.3914 113.575 33.4438Z" fill="#29CC7A"/>
<path d="M138.837 35.5438V33.1231H129.554C129.096 33.1231 129.096 32.8192 129.096 32.4845C129.096 32.1662 129.096 31.8613 129.264 31.4632L136.553 15.0002C136.767 14.528 138.121 14.528 139.459 14.528C140.692 14.528 141.924 14.528 141.924 15.0906C141.924 15.1512 141.908 15.2117 141.878 15.2887L136.278 28.0567H138.836V25.8486C138.836 25.2407 140.052 25.2407 141.254 25.2407C142.458 25.2407 143.675 25.2407 143.675 25.8486V28.0567H144.71C145.318 28.0567 145.318 29.3185 145.318 30.5822C145.318 31.8604 145.318 33.1231 144.71 33.1231H143.675V35.5438C143.675 36.1526 142.458 36.1526 141.239 36.1526C140.038 36.1526 138.837 36.1526 138.837 35.5438Z" fill="#29CC7A"/>
</svg>
