<svg width="200" height="57" viewBox="0 0 200 57" fill="none" xmlns="http://www.w3.org/2000/svg">
<path d="M4.55449 47.226C3.42809 46.2227 2.17461 45.3266 1.20439 44.1896C-0.554709 42.1247 -0.389256 39.7422 1.71664 38.0294C2.94364 37.0314 4.41684 36.2306 5.90459 35.6826C10.0409 34.1604 14.2421 32.7931 18.4288 31.4006C20.2633 30.7944 22.1256 30.261 24.0912 30.7666C25.4003 31.1094 26.127 32.0201 26.1707 33.3768C26.2289 35.0936 25.5102 36.5959 24.7504 38.0426C24.0528 39.3795 23.125 40.6012 22.3361 41.8997C18.9595 47.4497 12.2302 49.8613 6.14946 47.6787C5.65707 47.4986 5.16866 47.3067 4.67627 47.1214C4.63656 47.1558 4.5942 47.1916 4.55449 47.226ZM21.6968 39.6072C21.8517 39.0327 22.2435 38.0426 22.3573 37.0208C22.5227 35.6058 21.7749 34.5813 20.3824 34.314C19.3646 34.1167 18.2739 34.0148 17.2587 34.171C14.1084 34.6449 11.1012 35.6733 8.31227 37.1995C7.19248 37.8083 6.17329 38.6912 5.29043 39.6151C3.84238 41.1254 4.01578 43.1624 5.58825 44.5549C7.35264 46.1207 9.45721 46.7865 11.7749 46.5827C16.2011 46.2002 19.2309 43.6959 21.6968 39.6072Z" fill="#29CC7A"/>
<path d="M20.4193 0.252814C23.8594 1.40835 27.0705 2.1337 29.6754 4.24622C33.4293 7.29588 35.3101 11.2324 34.8945 16.0782C34.6946 18.4131 33.9137 20.6315 32.3108 22.4489C30.6788 24.3072 28.5808 24.6832 26.5782 23.2629C25.4597 22.4714 24.3717 21.4654 23.6609 20.3125C20.8376 15.7433 18.1387 11.0987 15.4703 6.43816C14.9858 5.60163 14.7343 4.58507 14.5689 3.61882C14.1956 1.47321 15.2942 0.0913308 17.4676 0.00529445C18.5649 -0.0370619 19.6768 0.186633 20.4193 0.252814ZM23.6807 3.28659C23.3459 3.20717 23.0176 3.1079 22.6827 3.04569C20.0064 2.54932 18.4339 4.01062 18.7688 6.70289C18.8323 7.2244 18.9302 7.75518 19.1129 8.24228C20.4061 11.6784 22.2234 14.8168 24.7449 17.4971C25.4107 18.2053 26.2539 18.7996 27.1182 19.2589C29.1791 20.3588 31.101 19.6163 32.1122 17.4839C33.1261 15.3436 33.1884 13.1543 32.3981 10.965C30.9117 6.8207 27.7734 4.49507 23.6807 3.28659Z" fill="#29CC7A"/>
<path d="M50.8324 51.6005C50.5479 50.3814 50.0489 49.1584 49.3897 48.0982C47.7457 45.4747 45.9615 42.9347 44.2223 40.3721C42.8192 38.3006 41.4016 36.2331 39.988 34.1643C39.9324 34.2053 39.8768 34.2477 39.8185 34.2874C39.579 34.0425 39.346 33.7923 39.1011 33.5554C36.892 31.4349 34.3546 31.3992 32.4976 33.2152C33.4929 34.0915 34.1455 35.2232 34.6961 36.3959C35.9456 35.9287 37.4704 36.2583 38.9926 37.4892C42.1958 40.0889 44.3374 43.4787 46.0158 47.1716C46.6657 48.6051 47.0588 50.2425 45.9046 51.5899C44.7716 52.9096 43.1461 52.6382 41.6319 52.351C39.9628 52.0347 38.307 51.2868 36.7239 50.1736C36.532 50.7746 36.2858 51.357 36.0118 51.9274C36.078 51.9711 36.1415 52.0201 36.2077 52.0625C39.3844 54.0201 42.978 54.7852 46.6127 55.3332C47.0972 55.4046 47.6094 55.353 48.1018 55.2948C50.2011 55.0446 51.3116 53.6521 50.8324 51.6005Z" fill="#29CC7A"/>
<path d="M35.6016 35.5807C34.6619 34.3867 33.8399 33.0962 32.8339 31.9711C32.7241 31.8493 32.6102 31.7328 32.5017 31.615C31.6215 30.6581 30.6632 29.7752 29.4521 29.2378C29.2853 29.165 29.1331 29.071 28.9583 29.0141C27.6718 28.576 26.5613 28.94 25.783 30.0518C24.6221 31.7143 24.4726 33.6442 24.4011 35.574C24.2476 39.9857 24.0569 44.3974 24.0411 48.8091C24.0371 50.3935 24.2753 52.0507 24.7783 53.5477C25.6466 56.1209 27.8253 57.1083 30.3733 56.1804C31.7803 55.6669 33.0563 54.8052 34.3879 54.1023C34.3693 54.052 34.3534 54.0004 34.3323 53.9554C34.6764 53.5543 35.0298 53.1652 35.37 52.7694C37.0378 50.7893 38.0437 48.457 38.4011 46.0453C38.4938 45.4193 38.552 44.7905 38.556 44.1578C38.5798 41.1439 37.5963 38.1115 35.6016 35.5807ZM36.3058 47.1148C35.689 49.3558 34.3309 51.1003 32.2462 52.2042C30.3918 53.1917 28.4209 52.6437 27.5116 50.7588C26.957 49.6072 26.4845 48.3445 26.3058 47.0844C25.8452 43.9355 25.9352 40.7587 26.5877 37.6402C26.7969 36.6356 27.272 35.6495 27.8108 34.764C28.0239 34.4198 28.2767 34.1551 28.556 33.9513C29.2535 33.447 30.1311 33.394 31.0378 33.8573C31.0894 33.8838 31.1384 33.9182 31.1887 33.9446C32.0411 34.4119 32.7717 35.0539 33.2323 35.3795C35.3197 38.0029 36.548 40.6211 36.7016 43.4285C36.7373 44.0864 36.7294 44.7508 36.6394 45.4365C36.5718 45.9858 36.4633 46.543 36.3058 47.1148Z" fill="#00506B"/>
<path d="M4.53047 22.4607C7.55628 20.4514 10.099 18.3614 13.3644 17.6016C18.0751 16.5096 22.3399 17.4415 25.9097 20.744C27.6304 22.3337 28.9024 24.3112 29.3538 26.6911C29.8197 29.12 28.8283 31.0088 26.4775 31.7196C25.1685 32.1141 23.7045 32.3563 22.3611 32.208C17.0202 31.6336 11.6966 30.9148 6.3756 30.1643C5.41862 30.028 4.46561 29.6044 3.59731 29.1425C1.67673 28.1193 1.26111 26.4052 2.52782 24.6355C3.16448 23.7473 4.0222 23.0048 4.53047 22.4607ZM8.92623 21.7486C8.66019 21.9591 8.37958 22.1589 8.12412 22.3853C6.08838 24.1907 6.27766 26.3311 8.60856 27.7196C9.06124 27.9896 9.5404 28.2398 10.0354 28.3946C13.543 29.4813 17.1354 29.9724 20.7992 29.6256C21.7667 29.5343 22.7542 29.2351 23.6489 28.8341C25.7826 27.885 26.373 25.9088 25.3127 23.8016C24.2446 21.6864 22.5543 20.2926 20.3386 19.5739C16.1546 18.2052 12.3928 19.2562 8.92623 21.7486Z" fill="#00506B"/>
<path d="M29.0802 22.4952C31.2205 21.1941 33.3581 19.8877 35.5037 18.5931C38.1576 16.9955 40.7837 15.3476 43.4932 13.8466C44.5851 13.2444 45.836 12.8089 47.0643 12.5931C49.1398 12.2238 50.474 13.4032 50.6103 15.5157C50.6447 16.0107 50.6685 16.5243 50.5719 17.0048C49.832 20.6051 48.875 24.155 46.7533 27.2192C42.7202 33.0538 34.9716 34.7745 29.2139 31.1901C25.9988 29.1941 25.6705 25.9314 28.4237 23.3489C28.6751 23.1186 28.9332 22.8963 29.1914 22.6699C29.1583 22.6104 29.1199 22.5521 29.0802 22.4952ZM42.8644 28.7811C45.2377 26.6911 46.7255 24.2821 47.329 21.8175C47.697 20.3218 48.0557 18.7136 46.7969 17.5117C45.5143 16.2887 43.8558 16.5918 42.3906 17.1663C38.6129 18.6461 35.1119 20.6051 32.3495 23.6653C29.8042 26.4886 30.601 29.5065 34.237 30.613C37.7168 31.6719 40.6924 30.5283 42.8644 28.7811Z" fill="#00506B"/>
<path d="M53.1118 34.0135C53.1118 25.4906 59.4996 19.1027 68.2753 19.1027C72.1919 19.1027 75.1661 19.877 77.8676 21.8254C78.0569 21.9512 78.1403 22.2027 78.1403 22.5376C78.1403 23.3754 77.6797 24.6527 77.3024 25.5541C76.675 27.0194 75.8147 28.4013 75.1026 28.4013C74.998 28.4013 74.9133 28.3602 74.81 28.2967C72.9662 26.9982 70.5784 26.3284 68.3587 26.3284C64.401 26.3284 60.8828 29.4469 60.8828 34.0135C60.8828 38.5601 64.401 41.68 68.3587 41.68C70.5784 41.68 72.9464 40.989 74.81 39.7316C74.9146 39.6694 75.0192 39.6482 75.1237 39.6482C75.7511 39.6482 76.589 40.7163 77.3024 42.3299C77.6995 43.2485 78.1403 44.5681 78.1403 45.4258C78.1403 45.7845 78.0781 46.0771 77.8676 46.2028C75.1661 48.1075 72.1919 48.9467 68.2753 48.9467C59.4996 48.948 53.1118 42.5377 53.1118 34.0135Z" fill="#00506B"/>
<path d="M81.5103 42.6012V17.8254C81.5103 16.9664 83.2694 16.9664 85.0285 16.9664C86.7876 16.9664 88.5467 16.9664 88.5467 17.8254V41.0512C88.5467 41.7633 88.8815 42.2875 89.7406 42.2875C90.0966 42.2875 90.4937 42.2451 90.9332 42.1207C90.9967 42.0982 91.0589 42.0982 91.1224 42.0982C91.8769 42.0982 91.8769 43.6072 91.8769 45.1346C91.8769 46.768 91.8769 48.4212 91.1224 48.5721C89.9087 48.821 88.6711 48.9255 87.4997 48.9255C83.4375 48.9242 81.5103 46.0559 81.5103 42.6012Z" fill="#00506B"/>
<path d="M93.6782 43.1227C93.6782 39.2074 97.0495 36.9043 101.805 35.9831L104.863 35.3967V34.3484C104.863 33.3848 104.257 32.6938 102.936 32.6938C101.322 32.6938 99.4598 33.0936 97.2388 34.265C97.1554 34.306 97.072 34.3272 96.9873 34.3272C96.3797 34.3272 95.7722 33.1968 95.2705 31.9831C94.9357 31.1677 94.622 30.3907 94.622 29.8044C94.622 29.4284 94.7477 29.1333 95.0614 28.9678C97.9522 27.4165 100.423 26.7256 103.292 26.7256C108.59 26.7256 111.86 28.9877 111.86 34.8937V47.8587C111.86 48.6966 110.245 48.6966 108.633 48.6966C106.999 48.6966 105.366 48.6966 105.366 47.8587V46.0149C104.152 47.7753 102.434 48.9242 99.5856 48.9242C96.2964 48.9242 93.6782 47.0619 93.6782 43.1227ZM104.862 40.8606V39.5436L102.412 40.0453C101.469 40.1909 100.715 40.8196 100.715 41.7395C100.715 42.5377 101.343 43.1029 102.286 43.1029C104.004 43.1042 104.862 41.8666 104.862 40.8606Z" fill="#00506B"/>
<path d="M115.983 47.312C115.711 47.1664 115.607 46.8964 115.607 46.5152C115.607 45.8878 115.921 45.0076 116.318 44.0453C116.842 42.7256 117.387 41.6561 118.099 41.6561C118.225 41.6561 118.349 41.6786 118.475 41.7395C119.857 42.4953 122.016 43.1029 123.418 43.1029C125.407 43.1029 126.078 42.6833 126.078 41.8653C126.078 40.9652 124.8 40.6515 123.272 40.2743C120.401 39.627 115.899 38.6832 115.899 33.5952C115.899 28.7137 119.712 26.7242 125.031 26.7242C127.668 26.7242 129.934 27.1438 132.005 28.3391C132.256 28.4847 132.361 28.7362 132.361 29.1134C132.361 29.7196 132.046 30.5998 131.67 31.5423C131.168 32.7785 130.499 33.9499 129.807 33.9499C129.704 33.9499 129.598 33.9274 129.493 33.8666C128.216 33.1544 126.626 32.5244 125.264 32.5244C123.693 32.5244 122.939 33.0049 122.939 33.7832C122.939 34.5575 124.132 34.8513 125.663 35.2034C128.594 35.8546 133.119 36.8791 133.119 42.2015C133.14 47.5622 128.678 48.9215 123.275 48.9215C120.61 48.9242 118.078 48.4847 115.983 47.312Z" fill="#00506B"/>
<path d="M135.922 47.312C135.649 47.1664 135.544 46.8964 135.544 46.5152C135.544 45.8878 135.858 45.0076 136.258 44.0453C136.779 42.7256 137.325 41.6561 138.037 41.6561C138.163 41.6561 138.287 41.6786 138.414 41.7395C139.796 42.4953 141.953 43.1029 143.356 43.1029C145.346 43.1029 146.016 42.6833 146.016 41.8653C146.016 40.9652 144.738 40.6515 143.21 40.2743C140.341 39.627 135.838 38.6832 135.838 33.5952C135.838 28.7137 139.649 26.7242 144.969 26.7242C147.609 26.7242 149.871 27.1438 151.944 28.3391C152.194 28.4847 152.3 28.7362 152.3 29.1134C152.3 29.7196 151.988 30.5998 151.611 31.5423C151.109 32.7785 150.438 33.9499 149.747 33.9499C149.641 33.9499 149.538 33.9274 149.435 33.8666C148.156 33.1544 146.564 32.5244 145.204 32.5244C143.632 32.5244 142.877 33.0049 142.877 33.7832C142.877 34.5575 144.071 34.8513 145.601 35.2034C148.533 35.8546 153.059 36.8791 153.059 42.2015C153.077 47.5622 148.618 48.9215 143.214 48.9215C140.55 48.9242 138.016 48.4847 135.922 47.312Z" fill="#00506B"/>
<path d="M156.313 46.0288C156.229 45.9454 156.189 45.8396 156.189 45.7138C156.189 45.0851 157.193 43.9772 158.367 42.8667C159.603 41.7151 160.817 40.7502 161.446 40.7502C161.57 40.7502 161.676 40.7727 161.739 40.8547C162.659 41.7985 163.729 42.4259 164.985 42.4259C166.997 42.4259 168.42 41.2121 168.42 39.2637C168.42 37.2743 167.015 36.0182 165.006 36.0182H157.364C156.988 36.0182 156.673 35.7031 156.673 35.3272V20.938C156.673 20.6031 156.923 20.3728 157.238 20.3728H173.174C174.013 20.3728 174.013 22.0896 174.013 23.8487C174.013 25.5866 174.013 27.3457 173.174 27.3457H163.438V29.5866H166.348C171.669 29.5866 175.876 33.0863 175.876 39.2637C175.876 46.1546 170.85 49.821 165.197 49.821C161.36 49.8197 158.85 48.7092 156.313 46.0288Z" fill="#29CC7A"/>
<path d="M191.08 48.9189V45.5873H178.305C177.675 45.5873 177.675 45.169 177.675 44.7084C177.675 44.2703 177.675 43.8507 177.906 43.3027L187.938 20.6447C188.232 19.9948 190.096 19.9948 191.937 19.9948C193.634 19.9948 195.329 19.9948 195.329 20.7691C195.329 20.8525 195.308 20.9359 195.266 21.0418L187.56 38.6144H191.079V35.5753C191.079 34.7388 192.754 34.7388 194.408 34.7388C196.064 34.7388 197.74 34.7388 197.74 35.5753V38.6144H199.164C200 38.6144 200 40.351 200 42.0902C200 43.8494 200 45.5873 199.164 45.5873H197.74V48.9189C197.74 49.7567 196.064 49.7567 194.387 49.7567C192.734 49.7567 191.08 49.7567 191.08 48.9189Z" fill="#29CC7A"/>
</svg>
